<?xml version="1.0" encoding="utf-8"?>
<svg xmlns="http://www.w3.org/2000/svg" viewBox="185.7249 131.284 200 22" width="auto" height="22px">
    <path d="M 193.874 133.516 L 199.451 150.666 C 199.871 151.958 198.908 153.284 197.549 153.284 L 193.976 153.284 C 192.669 153.284 191.513 152.438 191.117 151.192 L 185.839 134.57 C 185.348 133.022 186.503 131.444 188.127 131.444 L 191.021 131.444 C 192.321 131.444 193.472 132.28 193.874 133.516 Z" fill="#1068B4" style="stroke-width: 1; transform-origin: 192.638px 142.364px;" transform="matrix(-1, 0, 0, -1, 0.00003052, 0)"/>
    <path d="M 206.401 145.977 L 202.342 132.978 C 202.058 132.065 201.213 131.444 200.257 131.444 C 199.326 131.444 198.558 132.173 198.511 133.103 L 198.028 142.58 C 197.981 143.492 198.091 144.405 198.353 145.28 L 200.321 151.857 C 200.574 152.704 201.353 153.284 202.237 153.284 L 203.75 153.284 C 204.62 153.284 205.391 152.721 205.655 151.892 L 206.39 149.588 C 206.764 148.414 206.768 147.153 206.401 145.977 Z" fill="#E9E9E9" style="stroke-width: 1; transform-origin: 202.345px 142.364px;" transform="matrix(-1, 0, 0, -1, -0.00003052, 0)"/>
    <path d="M 210.331 131.284 L 213.436 131.284 C 215.054 131.284 216.209 132.853 215.727 134.398 L 210.499 151.176 C 210.109 152.43 208.948 153.284 207.635 153.284 L 204.102 153.284 C 202.759 153.284 201.797 151.985 202.189 150.7 L 207.461 133.409 C 207.846 132.146 209.011 131.284 210.331 131.284 Z" fill="#1068B4" style="stroke-width: 1; transform-origin: 208.969px 142.284px;" transform="matrix(-1, 0, 0, -1, 0, 0)"/>
    <text x="224.814" y="148.284" font-family="'Arial Black', 'Helvetica Neue', Arial, sans-serif" font-weight="800" font-size="13" letter-spacing="0.5" fill="#ffffff">LOYALTY CMS</text>
</svg>