<?xml version="1.0" encoding="utf-8"?>
<svg xmlns="http://www.w3.org/2000/svg" viewBox="198.6989 148.711 23.1626 17.157" width="23.1626px" height="17.157px">
    <path d="M 205.009 150.909 L 209.022 163.25 C 209.442 164.542 208.479 165.868 207.12 165.868 L 205.423 165.868 C 204.116 165.868 202.96 165.022 202.564 163.776 L 198.813 151.963 C 198.322 150.415 199.477 148.836 201.101 148.836 L 202.156 148.836 C 203.455 148.836 204.607 149.673 205.009 150.909 Z" fill="#1068B4" style="stroke-width: 1; transform-origin: 203.91px 157.352px;"/>
    <path d="M 214.584 159.772 L 211.543 150.033 C 211.321 149.321 210.662 148.836 209.917 148.836 C 209.191 148.836 208.592 149.405 208.555 150.13 L 208.194 157.218 C 208.148 158.129 208.258 159.043 208.519 159.917 L 209.873 164.441 C 210.126 165.288 210.905 165.868 211.789 165.868 L 212.319 165.868 C 213.189 165.868 213.96 165.305 214.224 164.476 L 214.573 163.383 C 214.947 162.209 214.951 160.948 214.584 159.772 Z" fill="#E9E9E9" style="stroke-width: 1; transform-origin: 211.52px 157.352px;" transform="matrix(-1, 0, 0, -1, 0, 0)"/>
    <path d="M 218.245 148.711 L 219.46 148.711 C 221.078 148.711 222.233 150.28 221.751 151.825 L 218.032 163.76 C 217.642 165.014 216.481 165.868 215.168 165.868 L 213.494 165.868 C 212.15 165.868 211.189 164.569 211.581 163.284 L 215.376 150.837 C 215.761 149.574 216.926 148.711 218.245 148.711 Z" fill="#1068B4" style="stroke-width: 1; transform-origin: 216.677px 157.289px;" transform="matrix(-1, 0, 0, -1, 0.00003052, 0)"/>
</svg>